<?xml version="1.0" encoding="UTF-8"?>
<svg width="27px" height="15px" viewBox="0 0 27 15" version="1.1" xmlns="http://www.w3.org/2000/svg" xmlns:xlink="http://www.w3.org/1999/xlink">
    <!-- Generator: Sketch 63.1 (92452) - https://sketch.com -->
    <title>Toolbar / Grid_Open</title>
    <desc>Created with Sketch.</desc>
    <g id="Project-Flow" stroke="none" stroke-width="1" fill="none" fill-rule="evenodd">
        <g id="Artboard_Grid" transform="translate(-714.000000, -28.000000)">
            <g id="Top-Bar">
                <g id="Global-Create" transform="translate(677.000000, 20.000000)">
                    <g id="Toolbar-/-Grid_Open" transform="translate(37.000000, 8.000000)">
                        <path d="M19.8621208,6.85884538 L22.3094954,9.29692168 C22.6997095,9.68565327 23.3308006,9.68565327 23.7210148,9.29692168 L26.1471114,6.88004241 C26.3427449,6.68515225 26.3433474,6.36857034 26.1484572,6.17293691 C26.0550995,6.07922314 25.92841,6.02632293 25.7961312,6.02582037 L20.2169003,6.00462334 C19.9407599,6.00357421 19.7160534,6.22657972 19.7150043,6.50272011 C19.7144967,6.63631569 19.7674742,6.76455832 19.8621208,6.85884538 Z" id="Path-2-Copy" fill="#D8D8D8"></path>
                        <path d="M13,0 C13.5522847,-1.01453063e-16 14,0.44771525 14,1 L14,14 C14,14.5522847 13.5522847,15 13,15 C12.4477153,15 12,14.5522847 12,14 L12,1 C12,0.44771525 12.4477153,1.01453063e-16 13,0 Z M5,0 C5.55228475,-1.01453063e-16 6,0.44771525 6,1 L6,14 C6,14.5522847 5.55228475,15 5,15 C4.44771525,15 4,14.5522847 4,14 L4,1 C4,0.44771525 4.44771525,1.01453063e-16 5,0 Z M1,0 C1.55228475,-1.01453063e-16 2,0.44771525 2,1 L2,12 C2,12.5522847 1.55228475,13 1,13 C0.44771525,13 6.76353751e-17,12.5522847 0,12 L0,1 C-6.76353751e-17,0.44771525 0.44771525,1.01453063e-16 1,0 Z M9,0 C9.55228475,-1.01453063e-16 10,0.44771525 10,1 L10,5 C10,5.55228475 9.55228475,6 9,6 C8.44771525,6 8,5.55228475 8,5 L8,1 C8,0.44771525 8.44771525,1.01453063e-16 9,0 Z" id="Combined-Shape" fill="#EDEDED"></path>
                    </g>
                </g>
            </g>
        </g>
    </g>
</svg>