<?xml version="1.0" encoding="UTF-8"?>
<svg width="56px" height="56px" viewBox="0 0 56 56" version="1.1" xmlns="http://www.w3.org/2000/svg" xmlns:xlink="http://www.w3.org/1999/xlink">
    <!-- Generator: Sketch 63.1 (92452) - https://sketch.com -->
    <title>Artboard</title>
    <desc>Created with Sketch.</desc>
    <g id="Artboard" stroke="none" stroke-width="1" fill="none" fill-rule="evenodd">
        <path d="M34.9520522,21.184865 C35.1943429,20.9425147 35.5830562,20.9394095 35.8208925,21.1773044 C36.0517731,21.4082419 36.0553446,21.8042881 35.8133337,22.0463586 L35.8133337,22.0463586 L29.361,28.5 L35.8133337,34.9536414 C36.0284545,35.1688152 36.0495349,35.5056488 35.8894088,35.740039 L35.8208925,35.8226956 C35.5830562,36.0605905 35.1943429,36.0574853 34.9520522,35.815135 L28.5,29.361 L22.0479478,35.815135 C21.8325783,36.0305575 21.5015169,36.0569468 21.2635665,35.8930704 L21.1791075,35.8226956 L21.1105912,35.740039 C20.9504651,35.5056488 20.9715455,35.1688152 21.1866663,34.9536414 L21.1866663,34.9536414 L27.638,28.5 L21.1866663,22.0463586 C20.9446554,21.8042881 20.9482269,21.4082419 21.1791075,21.1773044 C21.4169438,20.9394095 21.8056571,20.9425147 22.0479478,21.184865 L28.5,27.638 Z" id="fab" fill="#FFFFFF" transform="translate(28.500000, 28.500000) rotate(45.000000) translate(-28.500000, -28.500000) "></path>
    </g>
</svg>