<?xml version="1.0" encoding="UTF-8"?>
<svg width="751px" height="257px" viewBox="0 0 751 257" version="1.1" xmlns="http://www.w3.org/2000/svg" xmlns:xlink="http://www.w3.org/1999/xlink">
    <!-- Generator: Sketch 63.1 (92452) - https://sketch.com -->
    <title>Combined Shape</title>
    <desc>Created with Sketch.</desc>
    <defs>
        <path d="M367,0 C455.740818,0 534.057837,44.6295879 580.730332,112.668038 C587.992751,111.568336 595.430004,111 603,111 C684.738143,111 751,177.261857 751,259 C751,340.738143 684.738143,407 603,407 C595.430004,407 587.992751,406.431664 580.728581,405.335333 C534.057837,473.370412 455.740818,518 367,518 C278.927838,518 201.122982,474.04044 154.330071,406.865962 C152.236036,406.955289 150.123239,407 148,407 C66.261857,407 0,340.738143 0,259 C0,177.261857 66.261857,111 148,111 C150.123239,111 152.236036,111.044711 154.337499,111.133242 C201.122982,43.9595596 278.927838,0 367,0 Z" id="path-1"></path>
    </defs>
    <g id="Project-Flow" stroke="none" stroke-width="1" fill="none" fill-rule="evenodd">
        <g id="Artboard_Grid-Uploader" transform="translate(-425.000000, -910.000000)">
            <g id="Search" transform="translate(0.000000, 630.000000)">
                <g id="Search-Bar">
                    <g id="Cloud-Uploader" transform="translate(425.000000, 280.000000)">
                        <g id="Cloud">
                            <mask id="mask-2" fill="white">
                                <use xlink:href="#path-1"></use>
                            </mask>
                            <use id="Combined-Shape" fill-opacity="0.23" fill="#0D2582" xlink:href="#path-1"></use>
                        </g>
                    </g>
                </g>
            </g>
        </g>
    </g>
</svg>