<?xml version="1.0" encoding="UTF-8"?>
<svg width="751px" height="257px" viewBox="0 0 751 257" version="1.1" xmlns="http://www.w3.org/2000/svg" xmlns:xlink="http://www.w3.org/1999/xlink">
    <!-- Generator: Sketch 63.1 (92452) - https://sketch.com -->
    <title>Combined Shape</title>
    <desc>Created with Sketch.</desc>
    <defs>
        <linearGradient x1="50%" y1="0%" x2="50%" y2="36.297766%" id="linearGradient-1">
            <stop stop-color="#5A69B2" offset="0%"></stop>
            <stop stop-color="#2B3CB1" offset="100%"></stop>
        </linearGradient>
        <path d="M367,0 C455.740818,0 534.057837,44.6295879 580.730332,112.668038 C587.992751,111.568336 595.430004,111 603,111 C684.738143,111 751,177.261857 751,259 C751,340.738143 684.738143,407 603,407 C595.430004,407 587.992751,406.431664 580.728581,405.335333 C534.057837,473.370412 455.740818,518 367,518 C278.927838,518 201.122982,474.04044 154.330071,406.865962 C152.236036,406.955289 150.123239,407 148,407 C66.261857,407 0,340.738143 0,259 C0,177.261857 66.261857,111 148,111 C150.123239,111 152.236036,111.044711 154.337499,111.133242 C201.122982,43.9595596 278.927838,0 367,0 Z" id="path-2"></path>
    </defs>
    <g id="Project-Flow" stroke="none" stroke-width="1" fill="none" fill-rule="evenodd">
        <g id="Artboard_Grid-Uploader-Search-Copy-2" transform="translate(-425.000000, -910.000000)">
            <g id="Search" transform="translate(0.000000, 630.000000)">
                <g id="Cloud-Uploader" transform="translate(425.000000, 280.000000)">
                    <g id="Cloud">
                        <mask id="mask-3" fill="white">
                            <use xlink:href="#path-2"></use>
                        </mask>
                        <path stroke="url(#linearGradient-1)" stroke-width="8" d="M367,4 C280.286717,4 203.68321,47.2824519 157.619837,113.419343 C157.200926,114.020807 156.784663,114.623986 156.371059,115.228858 C155.63064,115.196764 154.899416,115.160463 154.169135,115.129697 C152.123499,115.043518 150.066832,115 148,115 C108.235498,115 72.235498,131.117749 46.1766235,157.176624 C20.117749,183.235498 4,219.235498 4,259 C4,298.764502 20.117749,334.764502 46.1766235,360.823376 C72.235498,386.882251 108.235498,403 148,403 C150.066057,403 152.121953,402.956518 154.159594,402.869596 C154.889632,402.838454 155.621531,402.801557 156.354918,402.758934 C156.771355,403.36688 157.190462,403.974126 157.612252,404.579635 C203.682998,470.717396 280.286572,514 367,514 C454.371775,514 531.479608,470.057706 577.430076,403.072622 C577.904052,402.381675 578.374547,401.688518 578.841549,400.99318 C579.674521,401.123598 580.50008,401.255548 581.325513,401.380125 C588.394984,402.447071 595.632909,403 603,403 C642.764502,403 678.764502,386.882251 704.823376,360.823376 C730.882251,334.764502 747,298.764502 747,259 C747,219.235498 730.882251,183.235498 704.823376,157.176624 C678.764502,131.117749 642.764502,115 603,115 C595.633586,115 588.39632,115.552825 581.3292,116.622954 C580.50361,116.747968 579.677892,116.880412 578.852126,117.020322 C578.381889,116.323107 577.908613,115.625801 577.431814,114.930731 C531.479619,47.9423234 454.371789,4 367,4 Z"></path>
                    </g>
                </g>
            </g>
        </g>
    </g>
</svg>