<?xml version="1.0" encoding="UTF-8"?>
<svg width="40px" height="40px" viewBox="0 0 40 40" version="1.1" xmlns="http://www.w3.org/2000/svg" xmlns:xlink="http://www.w3.org/1999/xlink">
    <!-- Generator: Sketch 63.1 (92452) - https://sketch.com -->
    <title>deleteBtn</title>
    <desc>Created with Sketch.</desc>
    <g id="Project-Flow" stroke="none" stroke-width="1" fill="none" fill-rule="evenodd">
        <g id="Artboard_Grid" transform="translate(-333.000000, -662.000000)">
            <g id="Group-2" transform="translate(273.000000, 662.000000)">
                <g id="deleteBtn" transform="translate(60.000000, 0.000000)">
                    <circle id="Oval" fill="#FF4949" cx="19.7999995" cy="19.7999995" r="19.7999995"></circle>
                    <path d="M23.3378903,30.2499995 C23.7597653,30.2499995 24.1201169,30.1005854 24.418945,29.8017573 C24.7177731,29.5029292 24.8671872,29.1425776 24.8671872,28.7207026 L24.8671872,28.7207026 L26.1328121,13.3749999 L27.1874996,13.3749999 L27.1874996,12.5839843 L22.9687497,12.5839843 L22.9687497,11.5292968 C22.9687497,11.1074218 22.8193357,10.7470703 22.5205075,10.4482422 C22.2216794,10.1494141 21.8613279,10 21.4394529,10 L21.4394529,10 L17.7480467,10 C17.3261717,10 16.9658202,10.1494141 16.6669921,10.4482422 C16.3681639,10.7470703 16.2187499,11.1074218 16.2187499,11.5292968 L16.2187499,11.5292968 L16.2187499,12.5839843 L12,12.5839843 L12,13.3749999 L13.1074218,13.3749999 L14.3730468,28.7207026 C14.3730468,29.1425776 14.5224609,29.5029292 14.821289,29.8017573 C15.1201171,30.1005854 15.4804687,30.2499995 15.9023436,30.2499995 L15.9023436,30.2499995 L23.3378903,30.2499995 Z M22.1777341,12.5839843 L17.0097655,12.5839843 L17.0097655,11.5292968 C17.0097655,11.0371093 17.2558592,10.7910156 17.7480467,10.7910156 L17.7480467,10.7910156 L21.4394529,10.7910156 C21.9316404,10.7910156 22.1777341,11.0371093 22.1777341,11.5292968 L22.1777341,11.5292968 L22.1777341,12.5839843 Z M23.3378903,29.4589839 L15.9023436,29.4589839 C15.3749999,29.4589839 15.111328,29.2128901 15.111328,28.7207026 L15.111328,28.7207026 L15.111328,28.6679683 L13.8984374,13.3749999 L25.3417965,13.3749999 L24.1289059,28.6679683 L24.1289059,28.7207026 C24.1289059,29.2128901 23.8652341,29.4589839 23.3378903,29.4589839 L23.3378903,29.4589839 Z M19.9628904,27.7714839 L19.9628904,15.0624999 L19.2246092,15.0624999 L19.2246092,27.7714839 L19.9628904,27.7714839 Z M22.3886716,27.7714839 L22.9687497,15.0624999 L22.1777341,15.0624999 L21.6503904,27.7714839 L22.3886716,27.7714839 Z M17.5371092,27.7714839 L16.9570311,15.0624999 L16.2187499,15.0624999 L16.798828,27.7714839 L17.5371092,27.7714839 Z" id="" fill="#FFFFFF" fill-rule="nonzero"></path>
                </g>
            </g>
        </g>
    </g>
</svg>