<?xml version="1.0" encoding="UTF-8"?>
<svg width="50px" height="50px" viewBox="0 0 50 50" version="1.1" xmlns="http://www.w3.org/2000/svg" xmlns:xlink="http://www.w3.org/1999/xlink">
    <!-- Generator: Sketch 63.1 (92452) - https://sketch.com -->
    <title>Logo</title>
    <desc>Created with Sketch.</desc>
    <defs>
        <polygon id="path-1" points="0.799999475 25.4681543 12.3979439 2.0139339 21.2419189 0 8.86110113 24.9852119 3.80602445 35.1866513"></polygon>
        <linearGradient x1="1.66116392%" y1="50%" x2="97.882082%" y2="50%" id="linearGradient-3">
            <stop stop-color="#7A6000" offset="0%"></stop>
            <stop stop-color="#D1A500" offset="100%"></stop>
        </linearGradient>
        <polygon id="path-4" points="13.0316398 2.50664556 0.194194132 29.8935876 4.40375974 43.6208812 24.6479721 1.51340333e-16"></polygon>
    </defs>
    <g id="Create-New-Project_Invision" stroke="none" stroke-width="1" fill="none" fill-rule="evenodd">
        <g id="category" transform="translate(-79.000000, -38.000000)">
            <g id="Logo" transform="translate(78.000000, 38.000000)">
                <g id="Fill-6" transform="translate(8.300215, 4.792706)">
                    <mask id="mask-2" fill="white">
                        <use xlink:href="#path-1"></use>
                    </mask>
                    <use id="Fill-1" fill="#D1A500" xlink:href="#path-1"></use>
                    <rect id="Rectangle" fill="url(#linearGradient-3)" mask="url(#mask-2)" transform="translate(4.099784, 31.607292) rotate(-63.000000) translate(-4.099784, -31.607292) " x="-2.70021516" y="21.6072921" width="13.5999992" height="19.9999988"></rect>
                </g>
                <g id="Group" transform="translate(25.599998, 1.063276)">
                    <mask id="mask-5" fill="white">
                        <use xlink:href="#path-4"></use>
                    </mask>
                    <use id="Fill-2" fill="#D1A500" xlink:href="#path-4"></use>
                    <rect id="Rectangle" fill="url(#linearGradient-3)" mask="url(#mask-5)" transform="translate(2.800000, 35.336722) rotate(-63.000000) translate(-2.800000, -35.336722) " x="-3.99999976" y="25.3367223" width="13.5999992" height="19.9999988"></rect>
                </g>
                <path d="M38.3652622,4.10703037 L32.9922387,21.96761 C32.5400599,23.4707069 32.5400451,25.0736146 32.9921961,26.5767199 L38.3625195,44.42952 C38.7767398,45.8065308 39.8982087,46.8552403 41.2998711,47.1763004 L49.6571345,49.090587 C50.0878087,49.1892357 50.5169097,48.920076 50.6155584,48.4894019 C50.6465364,48.3541603 50.6418091,48.2131872 50.6018408,48.0803247 L44.1330306,26.5767343 C43.6808568,25.0736202 43.6808564,23.4706967 44.1330292,21.9675824 L50.3805927,1.19941377 C50.5078708,0.776315585 50.2680612,0.330147467 49.844963,0.202869382 C49.7337326,0.169408614 49.6165499,0.160570629 49.5015591,0.176969666 L41.6309566,1.29940953 C40.0884842,1.51938412 38.8141108,2.61500326 38.3652622,4.10703037 Z" id="Fill-3" fill="#FFC900"></path>
                <path d="M22.8466889,42.7553573 L30.0038382,44.6843173 L30.0038382,44.6843173 L24.556392,26.5770231 C24.1041671,25.0738289 24.1041671,23.4708082 24.556392,21.967614 L29.6206153,5.13415152 C29.7479006,4.71105552 29.5080987,4.2648833 29.0850027,4.13759798 C28.9597907,4.09992888 28.8272541,4.09352501 28.6989937,4.1189469 L23.2699577,5.1950108 C21.8179889,5.48279874 20.6436465,6.54889711 20.2172255,7.96635973 L16.0051715,21.9676174 C15.5529602,23.4708096 15.5529712,25.0738242 16.0052032,26.5770102 L20.057198,40.0455449 C20.4557976,41.3704607 21.5107812,42.39531 22.8466889,42.7553573 Z" id="Fill-4" fill="#FFC900"></path>
                <path d="M4.96430829,10.4300369 L1.49321671,21.9668476 C1.0409256,23.4701202 1.04091164,25.0732411 1.49317659,26.5765216 L4.52232465,36.6450871 C4.85744049,37.7589764 5.77060919,38.6032918 6.90730204,38.8502361 L12.1061593,39.9796776 L12.1061593,39.9796776 L8.07334117,26.5767691 C7.62097089,25.0733347 7.62097941,23.470025 8.07336565,21.9665954 L12.120151,8.51778493 C12.2474597,8.09469596 12.0076824,7.6485105 11.5845934,7.52120182 C11.4620849,7.48433866 11.3325221,7.47739417 11.2067751,7.500951 L7.43939446,8.2067136 C6.26366543,8.42696891 5.30894382,9.28457733 4.96430829,10.4300369 Z" id="Fill-5" fill="#FFC900"></path>
            </g>
        </g>
    </g>
</svg>