<?xml version="1.0" encoding="UTF-8"?>
<svg width="40px" height="40px" viewBox="0 0 40 40" version="1.1" xmlns="http://www.w3.org/2000/svg" xmlns:xlink="http://www.w3.org/1999/xlink">
    <!-- Generator: Sketch 63.1 (92452) - https://sketch.com -->
    <title>replaceBtn</title>
    <desc>Created with Sketch.</desc>
    <g id="Project-Flow" stroke="none" stroke-width="1" fill="none" fill-rule="evenodd">
        <g id="Artboard_Grid" transform="translate(-273.000000, -662.000000)">
            <g id="Group-2" transform="translate(273.000000, 662.000000)">
                <g id="replaceBtn">
                    <circle id="Oval" fill="#1B1825" cx="19.7999995" cy="19.7999995" r="19.7999995"></circle>
                    <path d="M23.6959229,27.8801082 C23.7480062,27.8801082 23.7968343,27.8735978 23.8424072,27.8605769 C23.8879801,27.8475561 23.9368083,27.8280248 23.9888916,27.8019832 C24.4967041,27.5415665 24.9687093,27.2355769 25.4049072,26.8840144 C25.8411051,26.5324519 26.2382406,26.1450821 26.5963135,25.721905 C26.9543864,25.298728 27.2701416,24.8397436 27.5435791,24.3449519 C27.8170166,23.8501603 28.0383708,23.3293269 28.2076416,22.7824519 C28.3899333,22.2355769 28.510376,21.6821915 28.5689697,21.1222957 C28.6275635,20.5623998 28.6340739,20.0057592 28.588501,19.4523738 C28.5429281,18.8989884 28.4420166,18.3521134 28.2857666,17.8117488 C28.1295166,17.2713842 27.9211833,16.7472957 27.6607666,16.2394832 C27.3873291,15.6926082 27.0618083,15.1880509 26.6842041,14.7258113 C26.3065999,14.2635717 25.8899333,13.846905 25.4342041,13.4758113 C24.9784749,13.1047175 24.4836833,12.7857071 23.9498291,12.51878 C23.4159749,12.251853 22.8560791,12.0402644 22.2701416,11.8840144 C22.1920166,11.8579728 22.1106364,11.8351863 22.026001,11.815655 C21.9413656,11.7961238 21.8534749,11.7798478 21.7623291,11.7668269 L23.3248291,10.9855769 C23.4289958,10.9204728 23.5071208,10.8293269 23.5592041,10.7121394 C23.6112874,10.5949519 23.604777,10.4842748 23.5396729,10.3801082 L23.4810791,10.2238582 C23.4159749,10.1196915 23.3215739,10.0513321 23.197876,10.01878 C23.0741781,9.98622796 22.9602458,9.99599359 22.8560791,10.0480769 L19.9459229,11.5519832 L19.9459229,11.5519832 L19.7506104,11.6496394 C19.698527,11.6887019 19.6529541,11.7310196 19.6138916,11.7765925 C19.5748291,11.8221655 19.5487874,11.8709936 19.5357666,11.9230769 C19.5227458,11.9751603 19.5194906,12.0304988 19.526001,12.0890925 C19.5325114,12.1476863 19.5552979,12.2030248 19.5943604,12.2551082 L19.6920166,12.4504207 L19.7115479,12.4504207 L19.7115479,12.4504207 L21.5084229,15.2629207 C21.573527,15.3670873 21.6646729,15.4354467 21.7818604,15.4679988 C21.8990479,15.5005509 22.0097249,15.4842748 22.1138916,15.4191707 L22.2701416,15.3215144 C22.3743083,15.2694311 22.432902,15.1782853 22.4459229,15.0480769 C22.4589437,14.9178686 22.432902,14.8006811 22.3677979,14.6965144 L21.2154541,12.8996394 C21.3326416,12.9256811 21.4563395,12.9484675 21.5865479,12.9679988 C21.7167562,12.98753 21.8404541,13.0168269 21.9576416,13.0558894 C22.9732666,13.3163061 23.8782145,13.7720353 24.6724854,14.4230769 C25.4667562,15.0741186 26.104777,15.861879 26.5865479,16.7863582 C27.042277,17.6717748 27.3092041,18.596254 27.3873291,19.5597957 C27.4654541,20.5233373 27.354777,21.4738582 27.0552979,22.4113582 C26.7558187,23.3488582 26.2935791,24.1887019 25.6685791,24.9308894 C25.0435791,25.6730769 24.2948812,26.2720353 23.4224854,26.7277644 C23.2792562,26.8058894 23.1815999,26.9230769 23.1295166,27.0793269 C23.0774333,27.2355769 23.0904541,27.3918269 23.1685791,27.5480769 C23.2206624,27.6522436 23.2955322,27.7336238 23.3931885,27.7922175 C23.4908447,27.8508113 23.5917562,27.8801082 23.6959229,27.8801082 Z M16.3717041,29.9113582 L19.2818604,28.4074519 L19.2818604,28.4074519 L19.4771729,28.3097957 C19.5292562,28.2707332 19.5748291,28.2284155 19.6138916,28.1828425 C19.6529541,28.1372696 19.6789958,28.0884415 19.6920166,28.0363582 C19.7050374,27.9842748 19.7082926,27.9289363 19.7017822,27.8703425 C19.6952718,27.8117488 19.6724854,27.7564103 19.6334229,27.7043269 L19.5162354,27.5285457 L19.5162354,27.5090144 L19.5162354,27.5090144 L17.7193604,24.6965144 C17.6542562,24.5923478 17.5631104,24.5239884 17.4459229,24.4914363 C17.3287354,24.4588842 17.2115479,24.4751603 17.0943604,24.5402644 L16.9381104,24.6379207 C16.8339437,24.690004 16.7786051,24.7811498 16.7720947,24.9113582 C16.7655843,25.0415665 16.7948812,25.158754 16.8599854,25.2629207 L18.0123291,27.0597957 C17.9602458,27.0467748 17.9114176,27.033754 17.8658447,27.0207332 C17.8202718,27.0077123 17.7714437,26.9946915 17.7193604,26.9816707 C17.2115479,26.8514623 16.7265218,26.6691707 16.2642822,26.4347957 C15.8020426,26.2004207 15.3723551,25.923728 14.9752197,25.6047175 C14.5780843,25.2857071 14.2167562,24.9276342 13.8912354,24.5304988 C13.5657145,24.1333634 13.2792562,23.7069311 13.0318604,23.2512019 C12.589152,22.3788061 12.3254801,21.4575821 12.2408447,20.48753 C12.1562093,19.517478 12.2636312,18.5637019 12.5631104,17.6262019 C12.8625895,16.6887019 13.3345947,15.8488582 13.979126,15.1066707 C14.6236572,14.3644832 15.3821208,13.7655248 16.2545166,13.3097957 C16.3977458,13.2316707 16.495402,13.1144832 16.5474854,12.9582332 C16.5995687,12.8019832 16.5865479,12.6457332 16.5084229,12.4894832 C16.4302979,12.346254 16.3131104,12.2485978 16.1568604,12.1965144 C16.0006104,12.1444311 15.8508708,12.1574519 15.7076416,12.2355769 C15.1868083,12.4959936 14.7050374,12.8019832 14.2623291,13.1535457 C13.8196208,13.5051082 13.4159749,13.8957332 13.0513916,14.3254207 C12.6868083,14.7551082 12.3645426,15.2140925 12.0845947,15.7023738 C11.8046468,16.190655 11.5800374,16.7082332 11.4107666,17.2551082 C11.2284749,17.8019832 11.1080322,18.3553686 11.0494385,18.9152644 C10.9908447,19.4751603 10.9843343,20.0318009 11.0299072,20.5851863 C11.0754801,21.1385717 11.1763916,21.6854467 11.3326416,22.2258113 C11.4888916,22.7661759 11.6972249,23.2902644 11.9576416,23.7980769 C12.2440999,24.3449519 12.5761312,24.8495092 12.9537354,25.3117488 C13.3313395,25.7739884 13.7545166,26.190655 14.2232666,26.5617488 C14.6920166,26.9328425 15.1933187,27.2551082 15.7271729,27.5285457 C16.261027,27.8019832 16.8209229,28.0103165 17.4068604,28.1535457 C17.4198812,28.1665665 17.432902,28.1730769 17.4459229,28.1730769 L17.4849854,28.1730769 L17.4849854,28.1730769 L15.9029541,28.9933894 C15.7987874,29.0454728 15.7304281,29.1301082 15.697876,29.2472957 C15.6653239,29.3644832 15.6815999,29.4751603 15.7467041,29.5793269 L15.8052979,29.7355769 C15.870402,29.8397436 15.9550374,29.908103 16.0592041,29.940655 C16.1633708,29.9732071 16.2675374,29.9634415 16.3717041,29.9113582 Z" id="" fill="#FFFFFF" fill-rule="nonzero"></path>
                </g>
            </g>
        </g>
    </g>
</svg>