<?xml version="1.0" encoding="UTF-8"?>
<svg width="532px" height="532px" viewBox="0 0 532 532" version="1.1" xmlns="http://www.w3.org/2000/svg" xmlns:xlink="http://www.w3.org/1999/xlink">
    <!-- Generator: Sketch 63.1 (92452) - https://sketch.com -->
    <title>resize</title>
    <desc>Created with Sketch.</desc>
    <g id="Page-1" stroke="none" stroke-width="1" fill="none" fill-rule="evenodd">
        <g id="Artboard" transform="translate(-322.000000, -223.000000)" fill="#FFFFFF" fill-rule="nonzero" stroke="#FFFFFF" stroke-width="20">
            <g id="resize" transform="translate(588.000000, 489.000000) scale(-1, 1) translate(-588.000000, -489.000000) translate(332.000000, 233.000000)">
                <g id="Group">
                    <path d="M502.773,0 L384.172,0 C379.164,0 375.086,4.094 375.086,9.109 C375.086,14.14 379.164,18.234 384.172,18.234 L480.789,18.234 L334.164,164.922 C330.617,168.453 330.617,174.234 334.172,177.797 C337.594,181.219 343.594,181.25 347.024,177.797 L493.664,31.078 L493.664,127.766 C493.664,132.782 497.75,136.86 502.773,136.86 C507.781,136.86 511.867,132.782 511.867,127.766 L511.867,9.109 C511.867,4.094 507.781,0 502.773,0 Z" id="Path"></path>
                    <path d="M164.969,334.188 L18.336,480.891 L18.336,384.235 C18.336,379.204 14.258,375.126 9.242,375.126 C4.226,375.126 0.133,379.204 0.133,384.235 L0.133,502.891 C0.133,507.922 4.227,512 9.242,512 L127.828,512 C132.844,512 136.93,507.922 136.93,502.891 C136.93,497.86 132.844,493.766 127.828,493.766 L31.211,493.766 L177.836,347.094 C181.391,343.532 181.391,337.75 177.836,334.188 C174.414,330.734 168.43,330.781 164.969,334.188 Z" id="Path"></path>
                </g>
            </g>
        </g>
    </g>
</svg>