<?xml version="1.0" encoding="UTF-8"?>
<svg width="233px" height="30px" viewBox="0 0 233 30" version="1.1" xmlns="http://www.w3.org/2000/svg" xmlns:xlink="http://www.w3.org/1999/xlink">
    <!-- Generator: Sketch 62 (91390) - https://sketch.com -->
    <title>Global Create</title>
    <desc>Created with Sketch.</desc>
    <g id="Project-Flow" stroke="none" stroke-width="1" fill="none" fill-rule="evenodd">
        <g id="Artboard_Grid" transform="translate(-677.000000, -20.000000)">
            <g id="Top-Bar">
                <g id="Global-Create" transform="translate(677.000000, 20.000000)">
                    <g id="Toolbar-/-Redo" transform="translate(213.000000, 4.000000)" stroke="#D8D8D8" stroke-linecap="round" stroke-linejoin="round">
                        <g id="Redo" transform="translate(10.500000, 10.500000) scale(-1, 1) translate(-10.500000, -10.500000) ">
                            <path d="M8.54706338,18.1074227 C9.71390926,18.4200781 10.9119016,18.3878526 11.1629794,18.3641021 C15.2234376,17.9800063 18.4001461,14.5609833 18.4001461,10.3999999 C18.4001461,5.98172165 14.8184287,2.39999986 10.400151,2.39999986 C7.82207859,2.39999986 5.52883192,3.61948365 4.0657855,5.51307669 C3.02147583,6.86470673 2.39999986,8.55979401 2.39999986,10.3999999 C2.56206821,12.4502263 3.29549038,14.2437451 4.60026637,15.7805563" id="Oval" stroke-width="1.2" transform="translate(10.400073, 10.389147) rotate(-285.000000) translate(-10.400073, -10.389147) "></path>
                            <polyline id="Path-4" stroke-width="1.2" points="3.55367349 2.48783236 3.55367349 6.34183603 7.35298967 6.34183603"></polyline>
                        </g>
                    </g>
                    <g id="Toolbar-/-Undo" transform="translate(180.000000, 4.000000)" stroke="#D8D8D8" stroke-linecap="round" stroke-linejoin="round">
                        <g id="Undo">
                            <path d="M8.54706338,18.1074227 C9.71390926,18.4200781 10.9119016,18.3878526 11.1629794,18.3641021 C15.2234376,17.9800063 18.4001461,14.5609833 18.4001461,10.3999999 C18.4001461,5.98172165 14.8184287,2.39999986 10.400151,2.39999986 C7.82207859,2.39999986 5.52883192,3.61948365 4.0657855,5.51307669 C3.02147583,6.86470673 2.39999986,8.55979401 2.39999986,10.3999999 C2.56206821,12.4502263 3.29549038,14.2437451 4.60026637,15.7805563" id="Oval" stroke-width="1.2" transform="translate(10.400073, 10.389147) rotate(-285.000000) translate(-10.400073, -10.389147) "></path>
                            <polyline id="Path-4" stroke-width="1.2" points="3.55367349 2.48783236 3.55367349 6.34183603 7.35298967 6.34183603"></polyline>
                        </g>
                    </g>
                    <rect id="Divide" fill-opacity="0.6" fill="#D8D8D8" x="156" y="0" width="2" height="30" rx="1"></rect>
                    <g id="Toolbar-/-Link" transform="translate(110.000000, 10.000000)">
                        <g id="Link">
                            <path d="M9.59851074,0.0288085938 C10.1639532,0.0288085938 8.81241747,0.0288085938 5.54390367,0.0288085938 C0.641132969,0.0288085938 0,2.99597168 0,4.49597168 C0,5.99597168 0.641132969,9.49597168 5.54390367,9.49597168 C8.81241747,9.49597168 10.1639532,9.49597168 9.59851074,9.49597168" id="Path-7" stroke="#D8D8D8" stroke-width="1.2" stroke-linecap="round"></path>
                            <path d="M23.512972,0 C24.0784144,0 22.7268787,0 19.4583649,0 C14.5555942,0 13.6791097,2.96716309 13.6791097,4.46716309 C13.6791097,5.96716309 14.5555942,9.46716309 19.4583649,9.46716309 C22.7268787,9.46716309 24.0784144,9.46716309 23.512972,9.46716309" id="Path-7" stroke="#D8D8D8" stroke-width="1.2" stroke-linecap="round" transform="translate(18.658586, 4.733582) scale(-1, 1) translate(-18.658586, -4.733582) "></path>
                            <rect id="Rectangle" fill="#D8D8D8" x="7.20678711" y="3.51916504" width="9" height="2" rx="1"></rect>
                        </g>
                    </g>
                    <g id="Toolbar-/-Lock" transform="translate(80.500000, 4.269531)" stroke="#D8D8D8">
                        <g id="Lock-/-Unlock">
                            <line x1="6.5" y1="13.9801274" x2="6.5" y2="16.9801274" id="Line-3" stroke-width="1.2" stroke-linecap="round"></line>
                            <path d="M10.4956913,10.0445805 L10.4956913,3.12199787 C10.3775348,1.36075086 9.68189628,0.480127353 8.40877573,0.480127353 C6.49909491,0.480127353 6.48120661,0.480127353 4.56281955,0.480127353 C3.28389484,0.480127353 2.5948521,1.36075086 2.49569132,3.12199787 L2.49569132,6.27763752" id="Path-8" stroke-width="1.2" stroke-linecap="round"></path>
                            <path d="M12.4,20.4801274 L1,20.8801274 L0.6,13.4801274 C0.6,12.5412433 0.980557963,11.6912433 1.59583694,11.0759643 C2.21111593,10.4606853 3.06111593,10.0801274 4,10.0801274 L9,10.0801274 C9.93888407,10.0801274 10.7888841,10.4606853 11.4041631,11.0759643 C12.019442,11.6912433 12.4,12.5412433 12.4,13.4801274 L12.4,20.4801274 Z" id="Rectangle" stroke-width="1.2"></path>
                        </g>
                    </g>
                    <g id="Toolbar-/-Grid_Open" transform="translate(37.000000, 8.000000)">
                        <path d="M19.8621208,6.85884538 L22.3094954,9.29692168 C22.6997095,9.68565327 23.3308006,9.68565327 23.7210148,9.29692168 L26.1471114,6.88004241 C26.3427449,6.68515225 26.3433474,6.36857034 26.1484572,6.17293691 C26.0550995,6.07922314 25.92841,6.02632293 25.7961312,6.02582037 L20.2169003,6.00462334 C19.9407599,6.00357421 19.7160534,6.22657972 19.7150043,6.50272011 C19.7144967,6.63631569 19.7674742,6.76455832 19.8621208,6.85884538 Z" id="Path-2-Copy" fill="#D8D8D8"></path>
                        <path d="M13,0 C13.5522847,-1.01453063e-16 14,0.44771525 14,1 L14,14 C14,14.5522847 13.5522847,15 13,15 C12.4477153,15 12,14.5522847 12,14 L12,1 C12,0.44771525 12.4477153,1.01453063e-16 13,0 Z M5,0 C5.55228475,-1.01453063e-16 6,0.44771525 6,1 L6,14 C6,14.5522847 5.55228475,15 5,15 C4.44771525,15 4,14.5522847 4,14 L4,1 C4,0.44771525 4.44771525,1.01453063e-16 5,0 Z M1,0 C1.55228475,-1.01453063e-16 2,0.44771525 2,1 L2,12 C2,12.5522847 1.55228475,13 1,13 C0.44771525,13 6.76353751e-17,12.5522847 0,12 L0,1 C-6.76353751e-17,0.44771525 0.44771525,1.01453063e-16 1,0 Z M9,0 C9.55228475,-1.01453063e-16 10,0.44771525 10,1 L10,5 C10,5.55228475 9.55228475,6 9,6 C8.44771525,6 8,5.55228475 8,5 L8,1 C8,0.44771525 8.44771525,1.01453063e-16 9,0 Z" id="Combined-Shape" fill="#EDEDED"></path>
                    </g>
                    <g id="Toolbar-/-New-Image" transform="translate(0.000000, 4.000000)" fill="#EDEDED">
                        <g id="New-Image">
                            <path d="M10.5,0 C10.7761424,0 11,0.300064476 11,0.670212766 L11,0.670212766 L11,10 L20.3297872,10 C20.6629207,10 20.9392863,10.1813247 20.991228,10.4188974 L21,10.5 C21,10.7761424 20.6999355,11 20.3297872,11 L20.3297872,11 L11,11 L11,20.3297872 C11,20.6629207 10.8186753,20.9392863 10.5811026,20.991228 L10.5,21 C10.2238576,21 10,20.6999355 10,20.3297872 L10,20.3297872 L10,11 L0.670212766,11 C0.337079305,11 0.0607137334,10.8186753 0.00877195362,10.5811026 L0,10.5 C0,10.2238576 0.300064476,10 0.670212766,10 L0.670212766,10 L10,10 L10,0.670212766 C10,0.337079305 10.1813247,0.0607137334 10.4188974,0.00877195362 Z" id="Combined-Shape" fill-rule="nonzero"></path>
                        </g>
                    </g>
                </g>
            </g>
        </g>
    </g>
</svg>